# xmcd
#
# Track frame offsets:
#	150
#	32000
#	49887
#	76587
#	101637
#	121742
#	139587
#	162887
#	185512
#	210112
#
# Disc length: 3182 seconds
#
# Revision: 2843026746
# Processed by: cddbd v1.5.2PL0 Copyright (c) Steve Scherf et al.
# Submitted via: EZCDAudioConverter 8.0.2.1
#
DISCID=730c6c0a
DTITLE=Various Artist - Tuyệt Phẩm Song Ca 2
DYEAR=1995
DGENRE=World Pop
TTITLE0=Duy Quang, Sơn Tuyền - Tình đầu dang dở
TTITLE1=Duy Quang, Kiều Nga - Nhìn nhau lần cuối
TTITLE2=Duy Quang, Nhật Hạ - Vũng lầy của chúng ta
TTITLE3=Tuấn Vũ, Kiều Nga - Buồn vương màu áo
TTITLE4=Như Mai, Elvis Phương - Thoáng mây bay
TTITLE5=Carol Kim, Duy Quang - Tình đầu tình cuối
TTITLE6=Tuấn Vũ, Kiều Nga - Tình lỡ
TTITLE7=Duy Quang, Ngọc Lan - Hoa học trò
TTITLE8=Như Mai, Elvis Phương - Thôi
TTITLE9=Tuấn Vũ, Ngọc Lan - Ngăn cách
EXTD=
EXTT0=
EXTT1=
EXTT2=
EXTT3=
EXTT4=
EXTT5=
EXTT6=
EXTT7=
EXTT8=
EXTT9=
PLAYORDER=
